<?xml version="1.0" encoding="utf-8"?>
<!-- Generator: Adobe Illustrator 22.1.0, SVG Export Plug-In . SVG Version: 6.00 Build 0)  -->
<svg version="1.1" id="icon-coffee-bean" xmlns="http://www.w3.org/2000/svg" xmlns:xlink="http://www.w3.org/1999/xlink" x="0px"
	 y="0px" viewBox="0 0 100 100" style="enable-background:new 0 0 100 100;" xml:space="preserve">
<style type="text/css">
	.st0{opacity:0.2;fill:#9F9AA4;}
	.st1{fill:#E7CFCD;}
	.st2{opacity:0.3;fill:#9F9AA4;}
	.st3{clip-path:url(#XMLID_3_);fill:#443B2E;}
</style>
<title>icon-coffee-bean</title>
<g>
	<ellipse class="st0" cx="50" cy="68.6" rx="41.7" ry="13.7"/>
	<g>
		<path class="st1" d="M8.3,65.4C8.3,58.1,27,53.7,50,53.7c23,0,41.7,4.4,41.7,11.7C91.7,72.7,73,79,50,79C27,79,8.3,72.7,8.3,65.4z
			"/>
		<path class="st2" d="M22.8,63.5c0-4.4,12.2-4.2,27.2-4.2c15,0,27.2-0.2,27.2,4.2c0,4.4-12.2,7.2-27.2,7.2
			C35,70.7,22.8,67.9,22.8,63.5z"/>
		<path class="st2" d="M31.9,64.1c0-2.9,8.1-2.8,18.1-2.8s18.1-0.2,18.1,2.8c0,2.9-8.1,5.3-18.1,5.3S31.9,67,31.9,64.1z"/>
		<g>
			<g>
				<path class="st1" d="M25.7,60.6c-4.3,0-9-2.1-12.2-5.5c-3.1-3.3-4.6-7.4-4.3-11.9c0.4-6.8,5.2-9.3,9.5-9.3
					c2.7,0,5.5,0.9,7.7,2.4c1.1,0.7,2.3,1.4,3.5,2.1c4.2,2.4,8.9,5,8.9,11.3C38.9,53.8,37.2,60.6,25.7,60.6z M18.8,39
					c-2.8,0-4.3,1.5-4.5,4.6c-0.2,3.9,1.5,6.6,2.9,8.1c2.2,2.4,5.6,3.9,8.5,3.9c7.2,0,8.2-3,8.2-5.9c0-3.2-2.2-4.6-6.4-7
					c-1.2-0.7-2.5-1.4-3.8-2.3C22.3,39.5,20.4,39,18.8,39z"/>
			</g>
			<g>
				<path class="st1" d="M78.7,39.5c0,15.7-12.8,28.4-28.7,28.4S21.3,55.2,21.3,39.5s0.6,1.8,28.7,1.8S78.7,23.8,78.7,39.5z"/>
				<path class="st1" d="M78.4,34.3c0,5.6-12.7,10.2-28.4,10.2c-15.7,0-28.4-4.5-28.4-10.2c0-5.6,12.7-10.2,28.4-10.2
					C65.7,24.2,78.4,28.7,78.4,34.3z"/>
				<g>
					<defs>
						<path id="XMLID_1_" d="M75.7,35.1c0,4.7-11.5,8.6-25.7,8.6c-14.2,0-25.7-3.8-25.7-8.6c0-4.7,11.5-8.6,25.7-8.6
							C64.2,26.5,75.7,30.3,75.7,35.1z"/>
					</defs>
					<use xlink:href="#XMLID_1_"  style="overflow:visible;fill:#897160;"/>
					<clipPath id="XMLID_3_">
						<use xlink:href="#XMLID_1_"  style="overflow:visible;"/>
					</clipPath>
					<path class="st3" d="M23.8,36.6c0,4.3,11.5,7.8,25.7,7.8c14.2,0,25.7-3.5,25.7-7.8c0-4.3-11.5-7.8-25.7-7.8
						C35.3,28.8,23.8,32.3,23.8,36.6z"/>
				</g>
			</g>
		</g>
	</g>
</g>
</svg>
