<?xml version="1.0" encoding="utf-8"?>
<!-- Generator: Adobe Illustrator 22.1.0, SVG Export Plug-In . SVG Version: 6.00 Build 0)  -->
<svg version="1.1" id="pattern" xmlns="http://www.w3.org/2000/svg" xmlns:xlink="http://www.w3.org/1999/xlink" x="0px" y="0px"
	 viewBox="0 0 131 140.7" style="enable-background:new 0 0 131 140.7;" xml:space="preserve">
<style type="text/css">
	.st0{fill:#F4DDDC;}
</style>
<title>pattern</title>
<path class="st0" d="M35.7,14.9c-3.8,3.2-6.2,6.7-7,10.7s-3.2,7.7-7.1,11.7l1.5,0.2c3.9,0,8.3-2.9,11.3-7.4S38.6,18.1,35.7,14.9
	 M35.8,12.9c4.4,3.3,4.4,11.2-0.1,18C32.4,36,27.4,39,23.1,39c-1.5,0-2.9-0.4-4.2-1.2h-0.1c4.1-3.8,7.5-8.1,8.4-12.5
	S32,15.8,35.8,12.9z"/>
<path class="st0" d="M16.9,37.4l-0.5-0.3c-5.1-3.4-5.3-11.8-0.4-19.2c2.9-4.4,7.1-7.5,11.2-8.3c2.6-0.5,4.9-0.1,6.8,1.2l1.2,0.8
	l-0.9,0.7c-3.2,2.3-7.2,6.3-8.3,11.8c-0.8,4.2-3.7,8.5-8.6,12.9L16.9,37.4z M29.2,10.9c-0.6,0-1.2,0.1-1.8,0.2
	c-3.7,0.7-7.5,3.6-10.2,7.6c-4.1,6.3-4.3,13.6-0.5,16.7c4.4-4,7-8,7.7-11.6l0,0c1.1-5.5,4.8-9.5,8-12.1
	C31.5,11.2,30.4,10.9,29.2,10.9z"/>
<path class="st0" d="M57.9,41.3c0.2,1.8,0.9,3.4,2.1,4.7c2.3,2.6,5.4,4.4,8.7,5.3c1.7,0.5,3.5,0.7,5.3,0.7c4.4,0,8-1.6,9.5-4.2
	c-3.1-2.1-6.8-3.3-10.6-3.4h-3.3c-3.5,0-7.4-1.1-11.7-3.2 M56.6,38.7c4.3,2.5,8.8,4.2,13,4.2h3.3c4.6,0.1,9,1.7,12.6,4.5
	c-1.3,3.9-5.9,6.3-11.5,6.3c-1.9,0-3.8-0.3-5.7-0.8c-8-2.3-13.3-8.5-11.8-13.9L56.6,38.7z"/>
<path class="st0" d="M86.2,45.9l-0.6-0.4c-4.7-3.2-9.4-4.6-13.9-4.2c-4.1,0.5-9-0.9-15-4.2l-0.5-0.3l0.2-0.6
	c1.7-5.9,9.8-8.7,18.3-6.3c5,1.4,9.2,4.4,11.3,8.1c1.2,2.2,1.6,4.6,1,6.7c0,0.3-0.1,0.5-0.3,0.7L86.2,45.9z M73.5,39.7
	c4,0,8,1.3,12.1,3.9c0.3-1.6-0.1-3.2-1-4.9c-1.8-3.3-5.7-6.1-10.3-7.3c-7.2-2-14.3,0.1-16.1,4.7c5.4,2.9,9.8,4.1,13.5,3.7l0,0
	C72.3,39.8,72.9,39.7,73.5,39.7z"/>
<path class="st0" d="M45.7,73c-5,0.6-8.9,2.3-11.7,5.2s-6.8,4.8-12.3,6.1c1.5,1.6,4.1,2.5,7.2,2.5c2.6,0,5.1-0.6,7.5-1.7
	C42.5,82.4,46.3,77.2,45.7,73 M46.8,71.4c2,5.1-2.3,11.8-9.7,15.1c-2.6,1.1-5.4,1.8-8.2,1.8c-4.5,0-8.3-1.8-9.8-5.1l0,0
	c5.5-1,10.6-2.8,13.8-6.1S42.1,71.7,46.8,71.4z"/>
<path class="st0" d="M17.6,81.9l-0.2-0.6c-2.4-5.6,2.1-12.8,10.1-16.4c4.8-2.1,9.9-2.5,13.8-1c2.4,0.9,4.1,2.5,5.1,4.5
	c0.2,0.3,0.2,0.6,0.2,0.8v0.7h-0.7c-5.7,0.4-10.2,2.2-13.4,5.5c-2.8,3-7.6,5.1-14.2,6.3L17.6,81.9z M36.1,64.5
	c-2.5,0-5.3,0.6-7.9,1.8c-6.8,3.1-11,9.1-9.5,13.8c6-1.2,10.2-3.1,12.7-5.7l0,0c3.3-3.3,7.7-5.3,13.3-5.8c-0.8-1.4-2.2-2.5-3.9-3.2
	C39.3,64.8,37.7,64.5,36.1,64.5z"/>
<path class="st0" d="M102.2,70.5h-0.9c0.5,5,2.2,8.9,5,11.7s4.8,7,5.9,12.5c3-2.8,3.5-9,1-14.8S106.3,70.5,102.2,70.5 M102.2,68.9
	c4.6,0,9.8,4.1,12.5,10.4s1.7,15.7-3.5,17.9h-0.1c-0.9-5.5-2.6-10.6-5.9-13.9s-5.3-9.2-5.6-13.9C100.4,69.1,101.3,68.9,102.2,68.9z"
	/>
<path class="st0" d="M106.1,99.4c-5,0-10.3-4.2-13.2-10.9c-3.5-8-1.7-16.4,3.9-18.9l0.2-0.1h1.2v0.7c0.4,5.8,2.2,10.3,5.4,13.5l0,0
	c2.9,2.9,5.1,7.9,6.1,14.2l0.1,0.6l-0.6,0.2C108.2,99.2,107.2,99.4,106.1,99.4z M96.7,71.4c-4.2,2.5-5.3,9.7-2.4,16.5
	c3,6.9,9,11.1,13.7,9.7c-1-5.7-3-10.1-5.6-12.7C99.2,81.6,97.2,77,96.7,71.4z"/>
<path class="st0" d="M64.8,106.3c-1.1,0.6-1.6,1.8-1.4,3l4.1,17.9c0.1,0.8,0.7,1.4,1.4,1.7c0.7,0.4,1.6,0.4,2.3,0
	c0.5-0.3,0.9-0.7,1.2-1.2l1.6-3.4l0.9-2.1l1.6,1.7l10,10.7c0.8,0.8,2,1.1,3,0.6l0.6-0.5c1-0.8,1.2-2.3,0.4-3.4
	c-0.1-0.1-0.1-0.2-0.2-0.2l-10-10.7l-1.6-1.7l2.2-0.9l3.5-1.3h0.2c1-0.4,1.6-1.4,1.5-2.5s-0.9-2-1.9-2.3l-17.5-5.4
	C66.1,106.1,65.4,106.2,64.8,106.3 M64.1,105c1-0.4,2.1-0.5,3.1-0.2l17.5,5.4c2.2,0.7,3.4,3.1,2.6,5.3c-0.3,1-1.1,1.9-2,2.4
	l-0.4,0.2l-3.4,1.3l9.9,10.6c1.6,1.6,1.5,4.2-0.1,5.8l-0.1,0.1l0,0l-1,0.7c-1.7,0.8-3.6,0.4-4.9-0.9L75.4,125l-1.6,3.3
	c-0.4,0.9-1,1.6-1.9,2c-2,1-4.5,0.3-5.5-1.8c-0.2-0.3-0.3-0.7-0.4-1l-4.1-17.9C61.5,107.7,62.4,105.8,64.1,105L64.1,105z"/>
<path class="st0" d="M10.6,101.8c-0.6,0-1.2,0.2-1.6,0.6c-1.1,0.9-1.3,2.6-0.4,3.7l9.3,11.3l1.4,1.8l-2.2,0.7l-3.5,1.1
	c-1.1,0.3-1.9,1.3-1.9,2.4s0.7,2.1,1.7,2.5l17.1,6.5l1,0.2c0.7,0,1.4-0.4,1.9-0.9c0.5-0.6,0.7-1.3,0.6-2.1l-2.9-18.1
	c-0.2-1.3-1.3-2.3-2.6-2.2c-0.9,0-1.8,0.5-2.2,1.3l-1.8,3.3l-1.1,2l-1.5-1.8l-9.2-11.3C12.2,102.2,11.4,101.8,10.6,101.8
	 M10.6,100.3c1.3,0,2.5,0.5,3.3,1.5l9.2,11.3l1.8-3.2c0.7-1.4,2.1-2.2,3.6-2.2c2,0,3.8,1.5,4.1,3.5l3,18.1c0.4,2.2-1.1,4.4-3.3,4.7
	c-0.3,0-0.5,0.1-0.8,0.1c-0.5,0-1,0-1.5-0.2l-17.2-6.6c-2.1-0.8-3.2-3.1-2.4-5.3c0.5-1.2,1.5-2.2,2.7-2.5l3.6-1.1L7.4,107
	c-1.4-1.7-1.2-4.3,0.6-5.8l0,0l0,0C8.7,100.6,9.7,100.3,10.6,100.3z"/>
<path class="st0" d="M120.2,2.2L120.2,2.2c-0.8,0-1.6,0.3-2,1l-11.5,14.3c-0.9,1.1-0.7,2.8,0.4,3.6c0.4,0.3,1,0.5,1.6,0.6h0.6
	l3.6-0.8l2.3-0.6l-0.4,2.3L112.6,37c-0.2,1.4,0.8,2.7,2.2,2.9h0.4c1.3,0,2.4-0.9,2.6-2.2l2.2-14.4l0.3-2.3l2,1.2l3.2,1.9
	c0.4,0.3,0.9,0.4,1.4,0.4c0.9,0,1.6-0.5,2.1-1.2s0.6-1.6,0.3-2.4l-6.7-17.1C122.2,2.8,121.3,2.2,120.2,2.2 M120.2,0.6
	c1.7,0,3.3,1.1,3.9,2.7l6.6,17.1c0.8,2.1-0.2,4.5-2.3,5.3c-0.5,0.2-1,0.3-1.5,0.3c-0.8,0-1.5-0.2-2.2-0.6l-3.2-1.9L119.3,38
	c-0.3,2-2.1,3.5-4.1,3.5h-0.6c-2.3-0.4-3.8-2.5-3.5-4.8l2.2-14.4l-3.6,0.8l-1,0.2c-2.3-0.1-4.2-2-4.1-4.3c0-0.9,0.3-1.8,0.9-2.5
	l11.4-14.3C117.7,1.2,118.9,0.6,120.2,0.6z"/>
</svg>
