<?xml version="1.0" encoding="utf-8"?>
<!-- Generator: Adobe Illustrator 22.1.0, SVG Export Plug-In . SVG Version: 6.00 Build 0)  -->
<svg version="1.1" id="Layer_1" xmlns="http://www.w3.org/2000/svg" xmlns:xlink="http://www.w3.org/1999/xlink" x="0px" y="0px"
	 viewBox="0 0 100 100" style="enable-background:new 0 0 100 100;" xml:space="preserve">
<style type="text/css">
	.st0{fill:#FDFFFF;}
</style>
<path class="st0" d="M49.5,97.2c-25.1,0-45.4-20.3-45.4-45.4S24.4,6.4,49.5,6.4s45.4,20.3,45.4,45.4l0,0c0,5.4-0.9,10.7-2.8,15.7
	c-0.3,1-1.4,1.6-2.4,1.2h-0.1c-1-0.4-1.6-1.5-1.2-2.6l0,0c7.8-21.5-3.3-45.4-24.8-53.2c-4.5-1.6-9.3-2.5-14.1-2.5
	c-22.9,0-41.4,18.5-41.4,41.4s18.5,41.4,41.4,41.4c11.8,0,23.1-5,31-13.9c0.8-0.8,2.1-0.8,2.9-0.1c0.8,0.8,0.8,2,0.1,2.8
	C74.8,91.7,62.5,97.2,49.5,97.2z"/>
<g>
	<path class="st0" d="M71.1,37.9c1.9,0,3.4,1.6,3.4,3.5v22c0,1.9-1.6,3.5-3.4,3.5H27.9c-1.9,0-3.4-1.6-3.4-3.5v-22
		c0-1.9,1.6-3.5,3.4-3.5H71.1 M71.1,33.4H27.9c-4.3,0-7.8,3.6-7.8,8v22c0,4.4,3.5,8,7.8,8h43.1c4.3,0,7.8-3.6,7.8-8v-22
		C78.9,37,75.4,33.4,71.1,33.4z"/>
	<path class="st0" d="M74.5,43.5v19.9c0,1.9-1.5,3.5-3.4,3.5H27.9c-1.9,0-3.4-1.6-3.4-3.5V43.9L47,59.3h0c1.5,1,3.4,1,4.9,0l0.1,0
		L74.5,43.5 M77.1,36.2L49.5,55.6l-27.8-19c-1,1.4-1.6,3.1-1.6,4.8v22c0,4.4,3.5,8,7.8,8h43.1c4.3,0,7.8-3.6,7.8-8v-22
		C78.9,39.5,78.2,37.6,77.1,36.2z"/>
</g>
<path class="st0" d="M85.7,77.8c-0.4,0-0.8-0.1-1.1-0.4c-0.9-0.6-1.2-1.8-0.6-2.7c0.7-1,1.3-2.1,1.9-3.1c0.5-0.9,1.6-1.3,2.5-0.9
	c0.1,0,0.1,0.1,0.2,0.1c1,0.5,1.3,1.7,0.8,2.7l-2,3.4C87,77.5,86.4,77.8,85.7,77.8z"/>
</svg>
