<?xml version="1.0" encoding="utf-8"?>
<!-- Generator: Adobe Illustrator 22.1.0, SVG Export Plug-In . SVG Version: 6.00 Build 0)  -->
<svg version="1.1" id="Layer_1" xmlns="http://www.w3.org/2000/svg" xmlns:xlink="http://www.w3.org/1999/xlink" x="0px" y="0px"
	 viewBox="0 0 100 100" style="enable-background:new 0 0 100 100;" xml:space="preserve">
<style type="text/css">
	.st0{fill:#9F9AA4;}
</style>
<path class="st0" d="M28.1,66.5c4.3,2.8,9.3,4.2,14.4,4.2c17.4,0,27.2-14.7,26.6-27.9c1.8-1.3,3.4-2.9,4.7-4.8
	c-1.7,0.7-3.5,1.2-5.4,1.5c1.9-1.2,3.4-3,4.1-5.2c-1.8,1-3.8,1.8-5.9,2.2c-1.8-1.9-4.3-2.9-6.9-2.9c-5.1,0-9.3,4.1-9.4,9.2
	c0,0.8,0.1,1.5,0.3,2.3c-7.5-0.4-14.6-3.9-19.3-9.8c-2.5,4.3-1.2,9.8,2.9,12.5c-1.5,0-3-0.4-4.3-1.2c-0.1,4.5,3.1,8.5,7.5,9.4
	c-1.4,0.3-2.8,0.4-4.2,0.1c1.2,3.8,4.8,6.4,8.8,6.5C38.1,65.7,33.1,67.1,28.1,66.5z"/>
</svg>
