<?xml version="1.0" encoding="utf-8"?>
<!-- Generator: Adobe Illustrator 22.1.0, SVG Export Plug-In . SVG Version: 6.00 Build 0)  -->
<svg version="1.1" id="Layer_1" xmlns="http://www.w3.org/2000/svg" xmlns:xlink="http://www.w3.org/1999/xlink" x="0px" y="0px"
	 viewBox="0 0 100 100" style="enable-background:new 0 0 100 100;" xml:space="preserve">
<style type="text/css">
	.st0{fill:#9F9AA4;}
</style>
<path class="st0" d="M50.3,32.7c6.3,0,7,0,9.5,0.2c1.5,0,3,0.3,4.4,0.8c2.1,0.7,3.7,2.3,4.4,4.4c0.5,1.4,0.8,2.9,0.8,4.4
	c0.1,2.5,0.2,3.2,0.2,9.5s-0.1,7-0.2,9.5c0,1.5-0.3,3-0.8,4.4c-0.3,1-0.9,1.9-1.7,2.7c-0.8,0.7-1.7,1.3-2.7,1.7
	c-1.4,0.5-2.9,0.8-4.4,0.9h-19c-1.5,0-3-0.3-4.4-0.9c-2.1-0.7-3.7-2.3-4.4-4.4c-0.6-1.4-0.9-2.9-0.9-4.4C31,59,31,58.3,31,52
	s0-7,0.1-9.5c0-1.5,0.3-3,0.9-4.4c0.4-1,1-1.9,1.7-2.7c0.8-0.8,1.7-1.4,2.7-1.7c1.4-0.5,2.9-0.8,4.4-0.8
	C43.3,32.7,44,32.7,50.3,32.7 M50.3,28.5h-9.7c-2,0-3.9,0.4-5.7,1.1c-1.6,0.6-3,1.5-4.2,2.7c-1.2,1.2-2.1,2.7-2.7,4.3
	c-0.7,1.8-1.1,3.7-1.1,5.7c-0.1,2.5-0.1,3.3-0.1,9.7s0,7.2,0.1,9.7c0,2,0.4,3.9,1.1,5.7c1.2,3.2,3.7,5.7,6.9,6.9
	c1.8,0.7,3.7,1.1,5.7,1.1H60c2,0,3.9-0.4,5.7-1.1c1.6-0.6,3-1.5,4.2-2.7s2.1-2.6,2.7-4.2c0.7-1.8,1.1-3.7,1.1-5.7
	c0.1-2.5,0.1-3.3,0.1-9.7s0-7.2-0.1-9.7c0-2-0.4-3.9-1.1-5.7c-1.2-3.2-3.7-5.7-6.9-6.9C63.9,29,62,28.6,60,28.6h-9.7"/>
<path class="st0" d="M50.3,39.9c-6.7,0-12.1,5.4-12.1,12.1s5.4,12.1,12.1,12.1S62.4,58.7,62.4,52S57,39.9,50.3,39.9 M50.3,59.8
	c-4.3,0-7.8-3.5-7.8-7.8s3.5-7.8,7.8-7.8l0,0c4.3,0,7.8,3.5,7.8,7.8S54.6,59.8,50.3,59.8L50.3,59.8 M65.7,39.5
	c0,1.6-1.3,2.9-2.9,2.9s-2.9-1.3-2.9-2.9c0-1.6,1.3-2.9,2.9-2.9C64.4,36.6,65.7,37.9,65.7,39.5L65.7,39.5"/>
</svg>
