<?xml version="1.0" encoding="utf-8"?>
<!-- Generator: Adobe Illustrator 22.1.0, SVG Export Plug-In . SVG Version: 6.00 Build 0)  -->
<svg version="1.1" id="Layer_1" xmlns="http://www.w3.org/2000/svg" xmlns:xlink="http://www.w3.org/1999/xlink" x="0px" y="0px"
	 viewBox="0 0 100 100" style="enable-background:new 0 0 100 100;" xml:space="preserve">
<style type="text/css">
	.st0{fill:#FDFFFF;}
</style>
<path class="st0" d="M28.1,66.5c4.3,2.8,9.3,4.2,14.4,4.2c17.4,0,27.2-14.7,26.6-27.9c1.8-1.3,3.4-2.9,4.7-4.8
	c-1.7,0.7-3.5,1.2-5.4,1.5c1.9-1.2,3.4-3,4.1-5.2c-1.8,1-3.8,1.8-5.9,2.2c-1.8-1.9-4.3-2.9-6.9-2.9c-5.1,0-9.3,4.1-9.4,9.2
	c0,0.8,0.1,1.5,0.3,2.3c-7.5-0.4-14.6-3.9-19.3-9.8c-2.5,4.3-1.2,9.8,2.9,12.5c-1.5,0-3-0.4-4.3-1.2c-0.1,4.5,3.1,8.5,7.5,9.4
	c-1.4,0.3-2.8,0.4-4.2,0.1c1.2,3.8,4.8,6.4,8.8,6.5C38.1,65.7,33.1,67.1,28.1,66.5z M6.3,43.8H5.9c-1-0.1-1.7-1-1.6-2
	c0-0.1,0-0.2,0.1-0.3c2-9.5,7-18.2,14.3-24.7c0.7-0.7,1.9-0.8,2.7,0c0,0,0.1,0.1,0.1,0.1c0.7,0.8,0.7,2.1-0.1,2.9
	c-6.7,5.8-11.3,13.7-13.1,22.4C8.1,43.1,7.3,43.8,6.3,43.8z"/>
<path class="st0" d="M48.8,96.2C23.7,96.1,3.5,75.9,3.4,50.8c0-1,0-1.9,0.1-2.9c0.1-1.1,1-2,2.1-1.9c0,0,0,0,0,0
	c1.1,0.2,1.9,1.1,1.9,2.2c-0.1,0.9-0.1,1.7-0.1,2.6c0,22.9,18.5,41.4,41.4,41.4s41.4-18.5,41.4-41.4S71.7,9.4,48.8,9.4c0,0,0,0,0,0
	c-4.4,0-8.8,0.7-13,2.1c-1.1,0.3-2.2-0.2-2.6-1.3c-0.3-1,0.3-2.1,1.3-2.5c4.6-1.5,9.4-2.3,14.3-2.3c25.1,0,45.4,20.3,45.4,45.4
	S73.9,96.2,48.8,96.2C48.8,96.2,48.8,96.2,48.8,96.2z"/>
<path class="st0" d="M25.4,16.2c-1.1,0-2-0.8-2-2c0-0.7,0.3-1.4,0.9-1.7l3.7-2.1c1-0.5,2.2-0.1,2.7,0.9c0.5,1,0.1,2.2-0.9,2.7
	l-3.3,1.9C26.2,16.1,25.8,16.2,25.4,16.2z"/>
</svg>
