<svg xmlns="http://www.w3.org/2000/svg" width="100" height="100" viewBox="0 0 100 100"><circle cx="53.5" cy="46.8" r="43.4" fill="#2f243a" opacity=".7" transform="rotate(-78.1 53.513 46.784)"/><path fill="#fdffff" d="M28.1 66.5a26.2 26.2 0 0 0 14.4 4.2c17.4 0 27.2-14.7 26.6-27.9a19.5 19.5 0 0 0 4.7-4.8 23.9 23.9 0 0 1-5.4 1.5 9.7 9.7 0 0 0 4.1-5.2 19.9 19.9 0 0 1-5.9 2.2 9.5 9.5 0 0 0-6.9-2.9 9.3 9.3 0 0 0-9.1 11.5 26.4 26.4 0 0 1-19.3-9.8 9.3 9.3 0 0 0 2.9 12.5 8.9 8.9 0 0 1-4.3-1.2 9.4 9.4 0 0 0 7.5 9.4 9.8 9.8 0 0 1-4.2.1 9.4 9.4 0 0 0 8.8 6.5 18.8 18.8 0 0 1-13.9 3.9zM6.3 43.8h-.4a1.8 1.8 0 0 1-1.5-2.3 45.7 45.7 0 0 1 14.3-24.7 1.9 1.9 0 0 1 2.8.1 2.1 2.1 0 0 1-.1 2.9A40.8 40.8 0 0 0 8.3 42.2a2.1 2.1 0 0 1-2 1.6z"/><path fill="#fdffff" d="M48.8 96.2A45.5 45.5 0 0 1 3.4 50.8a28.1 28.1 0 0 1 .1-2.9A2 2 0 0 1 5.6 46a2.2 2.2 0 0 1 1.9 2.2 21.7 21.7 0 0 0-.1 2.6A41.4 41.4 0 1 0 48.8 9.4a40.7 40.7 0 0 0-13 2.1 2.1 2.1 0 0 1-2.6-1.3 2.1 2.1 0 0 1 1.3-2.5 46 46 0 0 1 14.3-2.3 45.4 45.4 0 0 1 0 90.8z"/><path fill="#fdffff" d="M25.4 16.2a2 2 0 0 1-1.1-3.7l3.7-2.1a2 2 0 0 1 1.8 3.6l-3.3 1.9a2 2 0 0 1-1.1.3z"/></svg>