<?xml version="1.0" encoding="utf-8"?>
<!-- Generator: Adobe Illustrator 22.1.0, SVG Export Plug-In . SVG Version: 6.00 Build 0)  -->
<svg version="1.1" id="Layer_1" xmlns="http://www.w3.org/2000/svg" xmlns:xlink="http://www.w3.org/1999/xlink" x="0px" y="0px"
	 viewBox="0 0 100 100" style="enable-background:new 0 0 100 100;" xml:space="preserve">
<style type="text/css">
	.st0{fill:#9F9AA4;}
</style>
<path class="st0" d="M77.1,36.2L77.1,36.2c-1.5-1.7-3.6-2.8-6-2.8H27.9c-4.3,0-7.8,3.6-7.8,8v22c0,0.8,0.1,1.6,0.4,2.4
	c0.3,1,0.8,1.9,1.4,2.7c0.2,0.2,0.3,0.4,0.5,0.6c1.4,1.5,3.4,2.4,5.5,2.4H71c2.2,0,4.1-0.9,5.5-2.4c0.2-0.2,0.3-0.4,0.5-0.6
	c0.6-0.8,1.1-1.7,1.4-2.7c0.1-0.3,0.1-0.5,0.2-0.8c0.1-0.5,0.2-1.1,0.2-1.6v0v-22v0C78.9,39.5,78.2,37.6,77.1,36.2z M71.1,66.9H27.9
	c-1.9,0-3.4-1.6-3.4-3.5V43.9L47,59.3c1.5,1,3.4,1,4.9,0H52l22.5-15.8v19.9C74.5,65.3,72.9,66.9,71.1,66.9z M27.9,37.9h43.2
	c0.9,0,1.7,0.4,2.3,0.9L49.5,55.6L25.4,39.1C26,38.4,26.9,37.9,27.9,37.9z"/>
</svg>
