<svg xmlns="http://www.w3.org/2000/svg" width="100" height="100" viewBox="0 0 100 100"><circle cx="53.7" cy="47.6" r="43.4" fill="#2f243a" opacity=".7" transform="rotate(-45 53.699 47.557)"/><path fill="#fdffff" d="M50.3 32.7c6.3 0 7 0 9.5.2a14.2 14.2 0 0 1 4.4.8 7.2 7.2 0 0 1 4.4 4.4 14.2 14.2 0 0 1 .8 4.4c.1 2.5.2 3.2.2 9.5s-.1 7-.2 9.5a14.2 14.2 0 0 1-.8 4.4 6.9 6.9 0 0 1-1.7 2.7 7.7 7.7 0 0 1-2.7 1.7 13.5 13.5 0 0 1-4.4.9h-19a12.9 12.9 0 0 1-4.4-.9 7.2 7.2 0 0 1-4.4-4.4 11.3 11.3 0 0 1-.9-4.4C31 59 31 58.3 31 52s0-7 .1-9.5a11.3 11.3 0 0 1 .9-4.4 7.7 7.7 0 0 1 1.7-2.7 6.9 6.9 0 0 1 2.7-1.7 13.6 13.6 0 0 1 4.4-.8c2.5-.2 3.2-.2 9.5-.2m0-4.2h-9.7a16.4 16.4 0 0 0-5.7 1.1 11.2 11.2 0 0 0-4.2 2.7 12 12 0 0 0-2.7 4.3 16.4 16.4 0 0 0-1.1 5.7c-.1 2.5-.1 3.3-.1 9.7s0 7.2.1 9.7a16.4 16.4 0 0 0 1.1 5.7 11.8 11.8 0 0 0 6.9 6.9 16.4 16.4 0 0 0 5.7 1.1H60a16.4 16.4 0 0 0 5.7-1.1 12 12 0 0 0 4.2-2.7 11.2 11.2 0 0 0 2.7-4.2 16.4 16.4 0 0 0 1.1-5.7c.1-2.5.1-3.3.1-9.7s0-7.2-.1-9.7a16.4 16.4 0 0 0-1.1-5.7 11.8 11.8 0 0 0-6.9-6.9 16.4 16.4 0 0 0-5.7-1.1h-9.7"/><path fill="#fdffff" d="M50.3 39.9A12.1 12.1 0 1 0 62.4 52a12.1 12.1 0 0 0-12.1-12.1m0 19.9a7.8 7.8 0 1 1 0-15.6 7.8 7.8 0 1 1 0 15.6m15.4-20.3a2.9 2.9 0 1 1-2.9-2.9 2.9 2.9 0 0 1 2.9 2.9"/><path fill="#fdffff" d="M49.5 97.2a45.4 45.4 0 1 1 45.4-45.4 44 44 0 0 1-2.8 15.7 1.9 1.9 0 0 1-2.5 1.2 2 2 0 0 1-1.2-2.6 41.5 41.5 0 0 0-38.9-55.7 41.4 41.4 0 1 0 30.9 68.9 2.1 2.1 0 0 1 2.9-.1 2 2 0 0 1 .1 2.8 45.4 45.4 0 0 1-33.9 15.2z"/><path fill="#fdffff" d="M85.7 77.8a1.5 1.5 0 0 1-1.1-.4 2 2 0 0 1-.6-2.7c.7-1 1.3-2.1 1.9-3.1a1.9 1.9 0 0 1 2.7-.8 2 2 0 0 1 .8 2.7l-2 3.4a2.1 2.1 0 0 1-1.7.9z"/></svg>