<?xml version="1.0" encoding="utf-8"?>
<!-- Generator: Adobe Illustrator 22.1.0, SVG Export Plug-In . SVG Version: 6.00 Build 0)  -->
<svg version="1.1" id="Layer_1" xmlns="http://www.w3.org/2000/svg" xmlns:xlink="http://www.w3.org/1999/xlink" x="0px" y="0px"
	 viewBox="0 0 100 100" style="enable-background:new 0 0 100 100;" xml:space="preserve">
<style type="text/css">
	.st0{fill:#FDFFFF;}
</style>
<path class="st0" d="M50.3,32.7c6.3,0,7,0,9.5,0.2c1.5,0,3,0.3,4.4,0.8c2.1,0.7,3.7,2.3,4.4,4.4c0.5,1.4,0.8,2.9,0.8,4.4
	c0.1,2.5,0.2,3.2,0.2,9.5s-0.1,7-0.2,9.5c0,1.5-0.3,3-0.8,4.4c-0.3,1-0.9,1.9-1.7,2.7c-0.8,0.7-1.7,1.3-2.7,1.7
	c-1.4,0.5-2.9,0.8-4.4,0.9h-19c-1.5,0-3-0.3-4.4-0.9c-2.1-0.7-3.7-2.3-4.4-4.4c-0.6-1.4-0.9-2.9-0.9-4.4C31,59,31,58.3,31,52
	s0-7,0.1-9.5c0-1.5,0.3-3,0.9-4.4c0.4-1,1-1.9,1.7-2.7c0.8-0.8,1.7-1.4,2.7-1.7c1.4-0.5,2.9-0.8,4.4-0.8
	C43.3,32.7,44,32.7,50.3,32.7 M50.3,28.5h-9.7c-2,0-3.9,0.4-5.7,1.1c-1.6,0.6-3,1.5-4.2,2.7c-1.2,1.2-2.1,2.7-2.7,4.3
	c-0.7,1.8-1.1,3.7-1.1,5.7c-0.1,2.5-0.1,3.3-0.1,9.7s0,7.2,0.1,9.7c0,2,0.4,3.9,1.1,5.7c1.2,3.2,3.7,5.7,6.9,6.9
	c1.8,0.7,3.7,1.1,5.7,1.1H60c2,0,3.9-0.4,5.7-1.1c1.6-0.6,3-1.5,4.2-2.7c1.2-1.2,2.1-2.6,2.7-4.2c0.7-1.8,1.1-3.7,1.1-5.7
	c0.1-2.5,0.1-3.3,0.1-9.7s0-7.2-0.1-9.7c0-2-0.4-3.9-1.1-5.7c-1.2-3.2-3.7-5.7-6.9-6.9C63.9,29,62,28.6,60,28.6h-9.7"/>
<path class="st0" d="M50.3,39.9c-6.7,0-12.1,5.4-12.1,12.1s5.4,12.1,12.1,12.1S62.4,58.7,62.4,52S57,39.9,50.3,39.9 M50.3,59.8
	c-4.3,0-7.8-3.5-7.8-7.8c0-4.3,3.5-7.8,7.8-7.8c0,0,0,0,0,0c4.3,0,7.8,3.5,7.8,7.8C58.1,56.3,54.6,59.8,50.3,59.8
	C50.3,59.8,50.3,59.8,50.3,59.8 M65.7,39.5c0,1.6-1.3,2.9-2.9,2.9c-1.6,0-2.9-1.3-2.9-2.9c0-1.6,1.3-2.9,2.9-2.9
	S65.7,37.9,65.7,39.5C65.7,39.5,65.7,39.5,65.7,39.5"/>
<path class="st0" d="M49.5,97.2c-25.1,0-45.4-20.3-45.4-45.4S24.4,6.4,49.5,6.4s45.4,20.3,45.4,45.4l0,0c0,5.4-0.9,10.7-2.8,15.7
	c-0.3,1-1.4,1.6-2.4,1.2c0,0-0.1,0-0.1,0c-1-0.4-1.6-1.5-1.2-2.6c0,0,0,0,0,0c7.8-21.5-3.3-45.4-24.8-53.2
	c-4.5-1.6-9.3-2.5-14.1-2.5c-22.9,0-41.4,18.5-41.4,41.4c0,22.9,18.5,41.4,41.4,41.4c11.8,0,23.1-5,31-13.9c0.8-0.8,2.1-0.8,2.9-0.1
	c0.8,0.8,0.8,2,0.1,2.8C74.8,91.7,62.5,97.2,49.5,97.2z"/>
<path class="st0" d="M85.7,77.8c-0.4,0-0.8-0.1-1.1-0.4c-0.9-0.6-1.2-1.8-0.6-2.7c0.7-1,1.3-2.1,1.9-3.1c0.5-0.9,1.6-1.3,2.5-0.9
	c0.1,0,0.1,0.1,0.2,0.1c1,0.5,1.3,1.7,0.8,2.7l-2,3.4C87,77.5,86.4,77.8,85.7,77.8z"/>
</svg>
