<svg xmlns="http://www.w3.org/2000/svg" width="100" height="100" viewBox="0 0 100 100"><circle cx="53.7" cy="47.6" r="43.4" fill="#2f243a" opacity=".7" transform="rotate(-45 53.699 47.557)"/><path fill="#fdffff" d="M49.5 97.2a45.4 45.4 0 1 1 45.4-45.4 44 44 0 0 1-2.8 15.7 1.9 1.9 0 0 1-2.5 1.2 2 2 0 0 1-1.2-2.6 41.5 41.5 0 0 0-38.9-55.7 41.4 41.4 0 1 0 30.9 68.9 2.1 2.1 0 0 1 2.9-.1 2 2 0 0 1 .1 2.8 45.4 45.4 0 0 1-33.9 15.2z"/><path fill="#fdffff" d="M85.7 77.8a1.5 1.5 0 0 1-1.1-.4 2 2 0 0 1-.6-2.7c.7-1 1.3-2.1 1.9-3.1a1.9 1.9 0 0 1 2.7-.8 2 2 0 0 1 .8 2.7l-2 3.4a2.1 2.1 0 0 1-1.7.9zM73 36.5a3.5 3.5 0 0 1 3.5 3.5v22a3.5 3.5 0 0 1-3.5 3.5H29a3.5 3.5 0 0 1-3.5-3.5V40a3.5 3.5 0 0 1 3.5-3.5h44m0-4.5H29a8 8 0 0 0-8 8v22a8 8 0 0 0 8 8h44a8 8 0 0 0 8-8V40a8 8 0 0 0-8-8z"/><path fill="#fdffff" d="M76.5 42.1V62a3.5 3.5 0 0 1-3.5 3.5H29a3.5 3.5 0 0 1-3.5-3.5V42.5l23 15.4 2.5 1.7 2.6-1.7 22.9-15.8m2.6-7.3L51 54.2l-28.4-19A7.9 7.9 0 0 0 21 40v22a8 8 0 0 0 8 8h44a8 8 0 0 0 8-8V40a7.9 7.9 0 0 0-1.9-5.2z"/></svg>